<svg width="41" height="40" viewBox="0 0 41 40" fill="none" xmlns="http://www.w3.org/2000/svg">
<g clip-path="url(#clip0_1_226)">
<path d="M20.01 20C19.9211 20 19.8322 20 19.7433 20L3.87668 14.1333C3.52112 13.9556 3.34334 13.6889 3.34334 13.3333C3.34334 12.9778 3.52112 12.7111 3.87668 12.5333L14.6767 8.53333C14.9433 8.44444 15.1656 8.46667 15.3433 8.6C15.5211 8.73333 15.6545 8.88889 15.7433 9.06667C15.8322 9.24444 15.8322 9.44444 15.7433 9.66667C15.6545 9.88889 15.5211 10.0444 15.3433 10.1333L6.54334 13.3333L20.01 18.2667L33.4767 13.3333L24.6767 10.1333C24.4989 10.0444 24.3656 9.88889 24.2767 9.66667C24.1878 9.44444 24.1878 9.24444 24.2767 9.06667C24.3656 8.88889 24.4989 8.73333 24.6767 8.6C24.8545 8.46667 25.0767 8.44444 25.3433 8.53333L36.1433 12.5333C36.4989 12.7111 36.6767 12.9778 36.6767 13.3333C36.6767 13.6889 36.4989 13.9556 36.1433 14.1333L20.2767 20H20.01ZM20.01 40C19.9211 40 19.8322 40 19.7433 40L10.81 36.6667C10.6322 36.5778 10.4989 36.4444 10.41 36.2667C10.3211 36.0889 10.3211 35.8889 10.41 35.6667C10.4989 35.4444 10.6322 35.2889 10.81 35.2C10.9878 35.1111 11.21 35.0667 11.4767 35.0667L20.01 38.2667L28.5433 35.0667C28.81 35.0667 29.0322 35.1111 29.21 35.2C29.3878 35.2889 29.5211 35.4444 29.61 35.6667C29.6989 35.8889 29.6989 36.0889 29.61 36.2667C29.5211 36.4444 29.3878 36.5778 29.21 36.6667L20.2767 40H20.01ZM4.14334 29.6C3.96557 29.6 3.78779 29.5111 3.61001 29.3333C3.43223 29.1556 3.34334 28.9778 3.34334 28.8V13.3333C3.34334 13.0667 3.43223 12.8667 3.61001 12.7333C3.78779 12.6 3.98779 12.5333 4.21001 12.5333C4.43223 12.5333 4.63223 12.6 4.81001 12.7333C4.98779 12.8667 5.07668 13.0667 5.07668 13.3333V28.8C5.07668 28.9778 4.98779 29.1556 4.81001 29.3333C4.63223 29.5111 4.41001 29.6 4.14334 29.6ZM35.8767 29.6C35.61 29.6 35.3878 29.5111 35.21 29.3333C35.0322 29.1556 34.9433 28.9778 34.9433 28.8V13.3333C34.9433 13.0667 35.0322 12.8667 35.21 12.7333C35.3878 12.6 35.5878 12.5333 35.81 12.5333C36.0322 12.5333 36.2322 12.6 36.41 12.7333C36.5878 12.8667 36.6767 13.0667 36.6767 13.3333V28.8C36.6767 28.9778 36.5878 29.1556 36.41 29.3333C36.2322 29.5111 36.0545 29.6 35.8767 29.6ZM20.01 13.3333C19.7433 13.3333 19.5433 13.2444 19.41 13.0667C19.2767 12.8889 19.21 12.7111 19.21 12.5333V5.86666C19.21 5.6 19.2767 5.37778 19.41 5.2C19.5433 5.02222 19.7433 4.95555 20.01 5C20.2767 5.04444 20.4767 5.13333 20.61 5.26667C20.7433 5.4 20.81 5.6 20.81 5.86666V12.5333C20.81 12.7111 20.7433 12.8889 20.61 13.0667C20.4767 13.2444 20.2767 13.3333 20.01 13.3333ZM34.9433 35.7333C34.6767 35.7333 34.4545 35.6444 34.2767 35.4667L30.2767 31.4667C30.0989 31.2889 30.01 31.0889 30.01 30.8667C30.01 30.6444 30.0989 30.4444 30.2767 30.2667C30.4545 30.0889 30.6545 30 30.8767 30C31.0989 30 31.2989 30.0889 31.4767 30.2667L35.4767 34.2667C35.6545 34.4444 35.7433 34.6444 35.7433 34.8667C35.7433 35.0889 35.6545 35.2889 35.4767 35.4667C35.2989 35.6444 35.1211 35.7333 34.9433 35.7333ZM5.07668 35.7333C4.8989 35.7333 4.72112 35.6444 4.54334 35.4667C4.36557 35.2889 4.27668 35.0889 4.27668 34.8667C4.27668 34.6444 4.36557 34.4444 4.54334 34.2667L8.54334 30.2667C8.72112 30.0889 8.92112 30 9.14334 30C9.36557 30 9.56557 30.0889 9.74334 30.2667C9.92112 30.4444 10.01 30.6444 10.01 30.8667C10.01 31.0889 9.92112 31.2889 9.74334 31.4667L5.74334 35.4667C5.56557 35.6444 5.34334 35.7333 5.07668 35.7333ZM20.01 40C19.7433 40 19.5433 39.9111 19.41 39.7333C19.2767 39.5556 19.21 39.3778 19.21 39.2V19.2C19.21 18.9333 19.2767 18.7111 19.41 18.5333C19.5433 18.3556 19.7433 18.2667 20.01 18.2667C20.2767 18.2667 20.4767 18.3556 20.61 18.5333C20.7433 18.7111 20.81 18.9333 20.81 19.2V39.2C20.81 39.3778 20.7433 39.5556 20.61 39.7333C20.4767 39.9111 20.2767 40 20.01 40ZM20.01 6.66666C19.1211 6.66666 18.3433 6.33333 17.6767 5.66666C17.01 5 16.6767 4.22222 16.6767 3.33333C16.6767 2.44444 17.01 1.66666 17.6767 0.999996C18.3433 0.333332 19.1211 -3.8147e-06 20.01 -3.8147e-06C20.8989 -3.8147e-06 21.6767 0.333332 22.3433 0.999996C23.01 1.66666 23.3433 2.44444 23.3433 3.33333C23.3433 4.22222 23.01 5 22.3433 5.66666C21.6767 6.33333 20.8989 6.66666 20.01 6.66666ZM20.01 1.6C19.5656 1.6 19.1878 1.77777 18.8767 2.13333C18.5656 2.48889 18.41 2.88889 18.41 3.33333C18.41 3.77777 18.5656 4.15555 18.8767 4.46666C19.1878 4.77777 19.5656 4.93333 20.01 4.93333C20.4545 4.93333 20.8545 4.77777 21.21 4.46666C21.5656 4.15555 21.7433 3.77777 21.7433 3.33333C21.7433 2.88889 21.5656 2.48889 21.21 2.13333C20.8545 1.77777 20.4545 1.6 20.01 1.6ZM36.6767 40C35.7878 40 35.01 39.6667 34.3433 39C33.6767 38.3333 33.3433 37.5556 33.3433 36.6667C33.3433 35.7778 33.6767 35 34.3433 34.3333C35.01 33.6667 35.7878 33.3333 36.6767 33.3333C37.5656 33.3333 38.3433 33.6667 39.01 34.3333C39.6767 35 40.01 35.7778 40.01 36.6667C40.01 37.5556 39.6767 38.3333 39.01 39C38.3433 39.6667 37.5656 40 36.6767 40ZM36.6767 34.9333C36.2322 34.9333 35.8322 35.1111 35.4767 35.4667C35.1211 35.8222 34.9656 36.2222 35.01 36.6667C35.0545 37.1111 35.2322 37.5111 35.5433 37.8667C35.8545 38.2222 36.2322 38.3778 36.6767 38.3333C37.1211 38.2889 37.5211 38.1111 37.8767 37.8C38.2322 37.4889 38.41 37.1111 38.41 36.6667C38.41 36.2222 38.2322 35.8222 37.8767 35.4667C37.5211 35.1111 37.1211 34.9333 36.6767 34.9333ZM3.34334 40C2.45445 40 1.67668 39.6667 1.01001 39C0.343343 38.3333 0.0100098 37.5556 0.0100098 36.6667C0.0100098 35.7778 0.343343 35 1.01001 34.3333C1.67668 33.6667 2.45445 33.3333 3.34334 33.3333C4.23223 33.3333 5.01001 33.6667 5.67668 34.3333C6.34334 35 6.67668 35.7778 6.67668 36.6667C6.67668 37.5556 6.34334 38.3333 5.67668 39C5.01001 39.6667 4.23223 40 3.34334 40ZM3.34334 34.9333C2.8989 35.0222 2.4989 35.2222 2.14334 35.5333C1.78779 35.8444 1.63223 36.2222 1.67668 36.6667C1.72112 37.1111 1.8989 37.5111 2.21001 37.8667C2.52112 38.2222 2.8989 38.3778 3.34334 38.3333C3.78779 38.2889 4.18779 38.1111 4.54334 37.8C4.8989 37.4889 5.05445 37.1111 5.01001 36.6667C4.96557 36.2222 4.78779 35.8222 4.47668 35.4667C4.16557 35.1111 3.78779 34.9333 3.34334 34.9333Z" fill="white"/>
</g>
<defs>
<clipPath id="clip0_1_226">
<rect width="40.02" height="40" fill="white" transform="matrix(1 0 0 -1 0 40)"/>
</clipPath>
</defs>
</svg>
