<svg width="41" height="40" viewBox="0 0 41 40" fill="none" xmlns="http://www.w3.org/2000/svg">
<g clip-path="url(#clip0_1_217)">
<path d="M15.7433 28C15.6545 28 15.5211 27.9556 15.3433 27.8667L11.0767 24.2667C10.8989 24.0889 10.81 23.9111 10.81 23.7333C10.81 23.5556 10.8989 23.3778 11.0767 23.2L15.3433 19.6C15.5211 19.5111 15.6989 19.4667 15.8767 19.4667C16.0545 19.4667 16.1878 19.5333 16.2767 19.6667C16.3656 19.8 16.41 19.9556 16.41 20.1333C16.41 20.3111 16.3656 20.4445 16.2767 20.5333L12.5433 23.7333L16.2767 26.9333C16.3656 27.0222 16.41 27.1556 16.41 27.3333C16.41 27.5111 16.3656 27.6667 16.2767 27.8C16.1878 27.9333 16.01 28 15.7433 28ZM24.2767 28C24.01 28 23.8322 27.9333 23.7433 27.8C23.6545 27.6667 23.61 27.5111 23.61 27.3333C23.61 27.1556 23.6545 27.0222 23.7433 26.9333L27.4767 23.7333L23.7433 20.5333C23.6545 20.4445 23.61 20.3111 23.61 20.1333C23.61 19.9556 23.6545 19.8 23.7433 19.6667C23.8322 19.5333 23.9656 19.4667 24.1433 19.4667C24.3211 19.4667 24.4989 19.5111 24.6767 19.6L28.9433 23.2C29.1211 23.3778 29.21 23.5556 29.21 23.7333C29.21 23.9111 29.1211 24.0889 28.9433 24.2667L24.6767 27.8667C24.4989 27.9556 24.3656 28 24.2767 28ZM18.5433 30.8C18.4545 30.8 18.3656 30.7778 18.2767 30.7333C18.1878 30.6889 18.0767 30.6 17.9433 30.4667C17.81 30.3333 17.7878 30.1778 17.8767 30L20.5433 17.3333C20.5433 17.1556 20.6322 17.0222 20.81 16.9333C20.9878 16.8444 21.1656 16.8 21.3433 16.8C21.5211 16.8 21.6545 16.8889 21.7433 17.0667C21.8322 17.2444 21.8322 17.4222 21.7433 17.6L19.0767 30.2667C19.0767 30.6222 18.8989 30.8 18.5433 30.8ZM35.61 37.6H4.41001C3.25445 37.6 2.23223 37.1778 1.34334 36.3333C0.454454 35.4889 0.0100098 34.4445 0.0100098 33.2V6.8C0.0100098 5.55556 0.454454 4.51112 1.34334 3.66667C2.23223 2.82223 3.25445 2.40001 4.41001 2.40001H35.61C36.7656 2.40001 37.7878 2.82223 38.6767 3.66667C39.5656 4.51112 40.01 5.55556 40.01 6.8V33.2C40.01 34.4445 39.5656 35.4889 38.6767 36.3333C37.7878 37.1778 36.7656 37.6 35.61 37.6ZM4.41001 3.73334C3.61001 3.73334 2.8989 4.02223 2.27668 4.60001C1.65445 5.17778 1.34334 5.91112 1.34334 6.8V33.2C1.34334 34.0889 1.65445 34.8222 2.27668 35.4C2.8989 35.9778 3.61001 36.2667 4.41001 36.2667H35.61C36.41 36.2667 37.1211 35.9778 37.7433 35.4C38.3656 34.8222 38.6767 34.0889 38.6767 33.2V6.8C38.6767 5.91112 38.3656 5.17778 37.7433 4.60001C37.1211 4.02223 36.41 3.73334 35.61 3.73334H4.41001ZM39.3433 12.9333H0.676676C0.498899 12.9333 0.343343 12.8667 0.21001 12.7333C0.0766764 12.6 0.0100098 12.4444 0.0100098 12.2667C0.0100098 12.0889 0.0766764 11.9333 0.21001 11.8C0.343343 11.6667 0.498899 11.6 0.676676 11.6H39.3433C39.5211 11.6 39.6767 11.6667 39.81 11.8C39.9433 11.9333 40.01 12.0889 40.01 12.2667C40.01 12.4444 39.9433 12.6 39.81 12.7333C39.6767 12.8667 39.5211 12.9333 39.3433 12.9333ZM11.3433 9.73334C10.7211 9.73334 10.21 9.53334 9.81001 9.13334C9.41001 8.73334 9.21001 8.24445 9.21001 7.66667C9.21001 7.08889 9.41001 6.6 9.81001 6.2C10.21 5.8 10.6989 5.60001 11.2767 5.60001C11.8545 5.60001 12.3433 5.8 12.7433 6.2C13.1433 6.6 13.3433 7.08889 13.3433 7.66667C13.3433 8.24445 13.1433 8.73334 12.7433 9.13334C12.3433 9.53334 11.8767 9.73334 11.3433 9.73334ZM11.3433 6.93334C11.0767 6.93334 10.8767 7 10.7433 7.13334C10.61 7.26667 10.5433 7.44445 10.5433 7.66667C10.5433 7.88889 10.61 8.06667 10.7433 8.2C10.8767 8.33334 11.0545 8.40001 11.2767 8.40001C11.4989 8.40001 11.6767 8.33334 11.81 8.2C11.9433 8.06667 12.01 7.88889 12.01 7.66667C12.01 7.44445 11.9433 7.26667 11.81 7.13334C11.6767 7 11.5211 6.93334 11.3433 6.93334ZM4.81001 9.73334C4.27668 9.73334 3.81001 9.53334 3.41001 9.13334C3.01001 8.73334 2.81001 8.24445 2.81001 7.66667C2.81001 7.08889 3.01001 6.6 3.41001 6.2C3.81001 5.8 4.2989 5.60001 4.87668 5.60001C5.45445 5.60001 5.94334 5.8 6.34334 6.2C6.74334 6.6 6.94334 7.08889 6.94334 7.66667C6.94334 8.24445 6.74334 8.73334 6.34334 9.13334C5.94334 9.53334 5.43223 9.73334 4.81001 9.73334ZM4.81001 6.93334C4.63223 6.93334 4.47668 7 4.34334 7.13334C4.21001 7.26667 4.14334 7.44445 4.14334 7.66667C4.14334 7.88889 4.21001 8.06667 4.34334 8.2C4.47668 8.33334 4.65445 8.40001 4.87668 8.40001C5.0989 8.40001 5.27668 8.33334 5.41001 8.2C5.54334 8.06667 5.61001 7.88889 5.61001 7.66667C5.61001 7.44445 5.54334 7.26667 5.41001 7.13334C5.27668 7 5.07668 6.93334 4.81001 6.93334ZM17.7433 9.73334C17.1211 9.73334 16.61 9.53334 16.21 9.13334C15.81 8.73334 15.61 8.24445 15.61 7.66667C15.61 7.08889 15.81 6.6 16.21 6.2C16.61 5.8 17.0989 5.60001 17.6767 5.60001C18.2545 5.60001 18.7433 5.8 19.1433 6.2C19.5433 6.6 19.7433 7.08889 19.7433 7.66667C19.7433 8.24445 19.5433 8.73334 19.1433 9.13334C18.7433 9.53334 18.2767 9.73334 17.7433 9.73334ZM17.7433 6.93334C17.4767 6.93334 17.2767 7 17.1433 7.13334C17.01 7.26667 16.9433 7.44445 16.9433 7.66667C16.9433 7.88889 17.01 8.08889 17.1433 8.26667C17.2767 8.44445 17.4545 8.53334 17.6767 8.53334C17.8989 8.53334 18.0989 8.44445 18.2767 8.26667C18.4545 8.08889 18.5433 7.88889 18.5433 7.66667C18.5433 7.44445 18.4545 7.26667 18.2767 7.13334C18.0989 7 17.9211 6.93334 17.7433 6.93334Z" fill="white"/>
</g>
<defs>
<clipPath id="clip0_1_217">
<rect width="40.02" height="40" fill="white" transform="matrix(1 0 0 -1 0 40)"/>
</clipPath>
</defs>
</svg>
