<svg width="41" height="40" viewBox="0 0 41 40" fill="none" xmlns="http://www.w3.org/2000/svg">
<path d="M37.61 2.8H23.21C22.5878 2.8 22.0322 3.02222 21.5433 3.46666C21.0545 3.91111 20.81 4.48889 20.81 5.2V13.8667L11.4767 16.4H2.67668C1.96557 16.4 1.34334 16.6667 0.81001 17.2C0.276676 17.7333 0.0100098 18.3556 0.0100098 19.0667V24.6667C0.0100098 25.3778 0.276676 25.9778 0.81001 26.4667C1.34334 26.9556 1.96557 27.2 2.67668 27.2H3.87668L4.81001 34.9333C4.98779 35.9111 5.52112 36.5778 6.41001 36.9333C6.85445 37.1111 7.34334 37.1778 7.87668 37.1333C8.41001 37.0889 8.85445 36.9333 9.21001 36.6667C10.01 36.0444 10.3211 35.2 10.1433 34.1333L9.21001 27.2H11.4767L31.0767 32.8C31.3433 32.8 31.5878 32.7333 31.81 32.6C32.0322 32.4667 32.1433 32.2667 32.1433 32V16.9333H37.61C38.3211 16.9333 38.8989 16.6889 39.3433 16.2C39.7878 15.7111 40.01 15.1556 40.01 14.5333V5.2C40.01 4.48889 39.7878 3.91111 39.3433 3.46666C38.8989 3.02222 38.3211 2.8 37.61 2.8ZM1.61001 24.6667V19.0667C1.61001 18.8 1.6989 18.5556 1.87668 18.3333C2.05445 18.1111 2.32112 18 2.67668 18H10.81V25.7333H2.67668C2.32112 25.7333 2.05445 25.6222 1.87668 25.4C1.6989 25.1778 1.61001 24.9333 1.61001 24.6667ZM8.67668 34.4C8.67668 34.8444 8.52112 35.1778 8.21001 35.4C7.8989 35.6222 7.52112 35.6667 7.07668 35.5333C6.63223 35.4 6.41001 35.1111 6.41001 34.6667L5.47668 27.2H7.74334L8.67668 34.4ZM30.5433 30.9333L12.41 25.8667V17.8667L21.0767 15.3333C21.2545 15.7778 21.5433 16.1556 21.9433 16.4667C22.3433 16.7778 22.7656 16.9333 23.21 16.9333H25.21L26.5433 18.2667C26.7211 18.3556 26.9211 18.4 27.1433 18.4C27.3656 18.4 27.5211 18.3556 27.61 18.2667L28.9433 16.9333H30.5433V30.9333ZM38.41 14.5333C38.41 14.7111 38.3433 14.8889 38.21 15.0667C38.0767 15.2444 37.8767 15.3333 37.61 15.3333H28.6767C28.4989 15.3333 28.3211 15.4222 28.1433 15.6L27.0767 16.5333L26.1433 15.6C25.9656 15.4222 25.7878 15.3333 25.61 15.3333H23.21C23.0322 15.3333 22.8545 15.2444 22.6767 15.0667C22.4989 14.8889 22.41 14.7111 22.41 14.5333V5.2C22.41 4.93333 22.4989 4.73333 22.6767 4.6C22.8545 4.46666 23.0322 4.4 23.21 4.4H37.61C37.8767 4.4 38.0767 4.46666 38.21 4.6C38.3433 4.73333 38.41 4.93333 38.41 5.2V14.5333ZM35.0767 6H25.7433C25.3878 6 25.1433 6.11111 25.01 6.33333C24.8767 6.55555 24.8767 6.8 25.01 7.06667C25.1433 7.33333 25.3878 7.46667 25.7433 7.46667H35.0767C35.4322 7.46667 35.6767 7.33333 35.81 7.06667C35.9433 6.8 35.9433 6.55555 35.81 6.33333C35.6767 6.11111 35.4322 6 35.0767 6ZM35.0767 9.06667H25.7433C25.3878 9.06667 25.1433 9.2 25.01 9.46667C24.8767 9.73333 24.8767 10 25.01 10.2667C25.1433 10.5333 25.3878 10.6667 25.7433 10.6667H35.0767C35.4322 10.6667 35.6767 10.5333 35.81 10.2667C35.9433 10 35.9433 9.73333 35.81 9.46667C35.6767 9.2 35.4322 9.06667 35.0767 9.06667ZM30.41 12.1333H25.7433C25.3878 12.2222 25.1433 12.3778 25.01 12.6C24.8767 12.8222 24.8767 13.0667 25.01 13.3333C25.1433 13.6 25.3878 13.7333 25.7433 13.7333H30.41C30.7656 13.7333 31.01 13.6 31.1433 13.3333C31.2767 13.0667 31.2767 12.8222 31.1433 12.6C31.01 12.3778 30.7656 12.2222 30.41 12.1333Z" fill="white"/>
</svg>
