<svg width="41" height="40" viewBox="0 0 41 40" fill="none" xmlns="http://www.w3.org/2000/svg">
<g clip-path="url(#clip0_1_223)">
<path d="M35.0767 24.4C32.0545 22.8 28.2767 21.8222 23.7433 21.4667L23.8767 20.1333C24.3211 20.0444 24.6989 19.8 25.01 19.4C25.3211 19 25.4767 18.5333 25.4767 18V11.7333C25.4767 10.6667 25.21 9.71111 24.6767 8.86666C24.1433 8.02222 23.4322 7.37778 22.5433 6.93333C23.4322 6.13333 23.8989 5.17778 23.9433 4.06667C23.9878 2.95555 23.6322 2 22.8767 1.2C22.1211 0.399998 21.1656 -3.8147e-06 20.01 -3.8147e-06C18.8545 -3.8147e-06 17.9211 0.399998 17.21 1.2C16.4989 2 16.1433 2.95555 16.1433 4.06667C16.1433 5.17778 16.5878 6.13333 17.4767 6.93333C16.5878 7.37778 15.8767 8.02222 15.3433 8.86666C14.81 9.71111 14.5433 10.6667 14.5433 11.7333V18C14.5433 18.5333 14.6989 19 15.01 19.4C15.3211 19.8 15.6989 20.0444 16.1433 20.1333L16.2767 21.4667C12.1878 21.8222 8.76557 22.6222 6.01001 23.8667C2.18779 25.5556 0.187788 27.8222 0.0100098 30.6667C0.187788 32.8889 1.47668 34.7556 3.87668 36.2667C5.83223 37.5111 8.45445 38.4889 11.7433 39.2C14.4989 39.7333 17.2322 40 19.9433 40C22.6545 40 25.1878 39.7778 27.5433 39.3333C29.8989 38.8889 32.01 38.2667 33.8767 37.4667C36.3656 36.4 38.0989 35.0667 39.0767 33.4667C40.0545 31.8667 40.21 30.2444 39.5433 28.6C38.8767 26.9556 37.3878 25.5556 35.0767 24.4ZM16.9433 28.9333C16.9433 29.6444 17.1656 30.2 17.61 30.6C18.0545 31 18.5878 31.2 19.21 31.2H20.81C21.4322 31.2 21.9656 31 22.41 30.6C22.8545 30.2 23.1211 29.6444 23.21 28.9333L23.3433 26.5333C25.6545 26.8 27.4989 27.2667 28.8767 27.9333C30.2545 28.6 30.9433 29.2889 30.9433 30C30.7656 30.8 29.9656 31.5111 28.5433 32.1333C27.3878 32.6667 25.9211 33.0667 24.1433 33.3333C22.6322 33.5111 21.2545 33.6222 20.01 33.6667C18.7656 33.7111 17.3878 33.6 15.8767 33.3333C14.0989 33.0667 12.6322 32.6667 11.4767 32.1333C10.0545 31.5111 9.25445 30.8 9.07668 30C9.07668 29.2889 9.78779 28.6 11.21 27.9333C12.6322 27.2667 14.4545 26.8 16.6767 26.5333L16.9433 28.9333ZM17.7433 3.86666C17.7433 3.24444 17.9656 2.71111 18.41 2.26667C18.8545 1.82222 19.3878 1.6 20.01 1.6C20.9878 1.6 21.6767 1.97778 22.0767 2.73333C22.4767 3.48889 22.4767 4.24444 22.0767 5C21.6767 5.75555 20.9878 6.17778 20.01 6.26667C19.3878 6.26667 18.8545 6.04444 18.41 5.6C17.9656 5.15555 17.7433 4.57777 17.7433 3.86666ZM16.1433 18V11.7333C16.1433 10.4889 16.5433 9.53333 17.3433 8.86666C18.1433 8.2 19.0545 7.86666 20.0767 7.86666C21.0989 7.86666 21.9878 8.2 22.7433 8.86666C23.4989 9.53333 23.8767 10.4889 23.8767 11.7333V18C23.8767 18.1778 23.81 18.3556 23.6767 18.5333C23.5433 18.7111 23.3656 18.8 23.1433 18.8C22.9211 18.8 22.7433 18.8667 22.61 19C22.4767 19.1333 22.41 19.2889 22.41 19.4667L21.61 28.8C21.61 29.0667 21.5211 29.2889 21.3433 29.4667C21.1656 29.6444 20.9878 29.7333 20.81 29.7333H19.21C19.0322 29.7333 18.8767 29.6444 18.7433 29.4667C18.61 29.2889 18.4989 29.0667 18.41 28.8L17.7433 19.4667C17.6545 19.2889 17.5433 19.1333 17.41 19C17.2767 18.8667 17.0989 18.8 16.8767 18.8C16.6545 18.8 16.4767 18.7111 16.3433 18.5333C16.21 18.3556 16.1433 18.1778 16.1433 18ZM33.3433 36C31.0322 37.0667 28.2322 37.7778 24.9433 38.1333C21.6545 38.4889 18.3656 38.4889 15.0767 38.1333C11.7878 37.7778 9.03223 37.0667 6.81001 36C5.12112 35.2889 3.83223 34.4667 2.94334 33.5333C2.05445 32.6 1.61001 31.6444 1.61001 30.6667C1.78779 28.3556 3.65445 26.4889 7.21001 25.0667C9.87668 24 12.9433 23.2889 16.41 22.9333L16.5433 24.9333C14.1433 25.2889 12.1656 25.8444 10.61 26.6C9.05445 27.3556 8.0989 28.2 7.74334 29.1333C7.38779 30.0667 7.56557 30.9556 8.27668 31.8C8.98779 32.6444 10.0545 33.3333 11.4767 33.8667C13.6989 34.7556 16.5433 35.2 20.01 35.2C23.4767 35.2 26.3211 34.7556 28.5433 33.8667C30.0545 33.3333 31.1433 32.6444 31.81 31.8C32.4767 30.9556 32.6545 30.0667 32.3433 29.1333C32.0322 28.2 31.0989 27.3556 29.5433 26.6C27.9878 25.8444 25.9656 25.2889 23.4767 24.9333L23.61 22.9333C27.9656 23.3778 31.5656 24.3111 34.41 25.7333C36.3656 26.8 37.61 27.9556 38.1433 29.2C38.6767 30.4444 38.5211 31.6667 37.6767 32.8667C36.8322 34.0667 35.3878 35.1111 33.3433 36Z" fill="white"/>
</g>
<defs>
<clipPath id="clip0_1_223">
<rect width="40.02" height="40" fill="white" transform="matrix(1 0 0 -1 0 40)"/>
</clipPath>
</defs>
</svg>
