<svg width="20" height="20" viewBox="0 0 20 20" fill="none" xmlns="http://www.w3.org/2000/svg">
<path d="M16.4276 16.9333L14.0943 14.5333C14.9831 13.4666 15.5387 12.2666 15.7609 10.9333C15.9831 9.59992 15.872 8.28881 15.4276 6.99992C14.9831 5.71103 14.2498 4.59992 13.2276 3.66658C12.2054 2.73325 11.0276 2.12214 9.69425 1.83325C8.36092 1.54436 7.0387 1.5777 5.72759 1.93325C4.41648 2.28881 3.27203 2.95547 2.29425 3.93325C1.31648 4.91103 0.649808 6.05547 0.294253 7.36658C-0.0613027 8.6777 -0.094636 9.99992 0.194253 11.3333C0.483142 12.6666 1.09425 13.8444 2.02759 14.8666C2.96092 15.8888 4.07203 16.6221 5.36092 17.0666C6.64981 17.511 7.96092 17.6221 9.29425 17.3999C10.6276 17.1777 11.8276 16.6221 12.8943 15.7333L15.2943 18.0666C15.4276 18.2444 15.6165 18.3333 15.8609 18.3333C16.1054 18.3333 16.3054 18.2555 16.4609 18.0999C16.6165 17.9444 16.6943 17.7444 16.6943 17.4999C16.6943 17.2555 16.6054 17.0666 16.4276 16.9333ZM1.69425 9.59992C1.69425 8.44436 1.97203 7.38881 2.52759 6.43325C3.08314 5.4777 3.8387 4.72214 4.79425 4.16658C5.74981 3.61103 6.79425 3.33325 7.92759 3.33325C9.06092 3.33325 10.1054 3.61103 11.0609 4.16658C12.0165 4.72214 12.7831 5.4777 13.3609 6.43325C13.9387 7.38881 14.2276 8.43325 14.2276 9.56658C14.2276 10.6999 13.9387 11.7444 13.3609 12.6999C12.7831 13.6555 12.0165 14.411 11.0609 14.9666C10.1054 15.5221 9.06092 15.7999 7.92759 15.7999C6.79425 15.7999 5.74981 15.5221 4.79425 14.9666C3.8387 14.411 3.08314 13.6555 2.52759 12.6999C1.97203 11.7444 1.69425 10.711 1.69425 9.59992Z" fill="white"/>
</svg>
