<svg width="41" height="40" viewBox="0 0 41 40" fill="none" xmlns="http://www.w3.org/2000/svg">
<g clip-path="url(#clip0_1_229)">
<path d="M39.21 32.1333H38.41V13.3333C38.41 12.5333 38.1211 11.8222 37.5433 11.2C36.9656 10.5778 36.2322 10.2667 35.3433 10.2667H26.41L25.8767 8.66667H26.6767C26.8545 8.66667 27.0322 8.6 27.21 8.46667C27.3878 8.33333 27.4767 8.13333 27.4767 7.86667V4C27.4767 3.73333 27.3878 3.53333 27.21 3.4C27.0322 3.26667 26.8545 3.2 26.6767 3.2H25.0767V0.799999C25.0767 0.622223 25.01 0.466667 24.8767 0.333332C24.7433 0.200001 24.5433 0.133335 24.2767 0.133335H15.7433C15.4767 0.133335 15.2767 0.200001 15.1433 0.333332C15.01 0.466667 14.9433 0.622223 14.9433 0.799999V3.2H13.3433C13.1656 3.2 12.9878 3.26667 12.81 3.4C12.6322 3.53333 12.5433 3.73333 12.5433 4V7.86667C12.5433 8.13333 12.6322 8.33333 12.81 8.46667C12.9878 8.6 13.1656 8.66667 13.3433 8.66667H14.1433L13.61 10.2667H4.67668C3.78779 10.2667 3.05445 10.5778 2.47668 11.2C1.8989 11.8222 1.61001 12.5333 1.61001 13.3333V32.1333H0.81001C0.543343 32.1333 0.343343 32.2 0.21001 32.3333C0.0766764 32.4667 0.0100098 32.6667 0.0100098 32.9333V36.8C0.0100098 37.6889 0.321121 38.4222 0.943343 39C1.56557 39.5778 2.27668 39.8667 3.07668 39.8667H36.9433C37.7433 39.8667 38.4545 39.5778 39.0767 39C39.6989 38.4222 40.01 37.6889 40.01 36.8V32.9333C40.01 32.6667 39.9433 32.4667 39.81 32.3333C39.6767 32.2 39.4767 32.1333 39.21 32.1333ZM35.3433 11.7333C35.7878 11.7333 36.1656 11.8889 36.4767 12.2C36.7878 12.5111 36.9433 12.8889 36.9433 13.3333V32.1333H35.3433V14.1333C35.3433 13.9556 35.2545 13.7778 35.0767 13.6C34.8989 13.4222 34.7211 13.3333 34.5433 13.3333H27.4767L26.9433 11.7333H35.3433ZM16.5433 33.7333H23.4767V35.2H16.5433V33.7333ZM6.27668 32.1333V14.9333H11.8767L11.4767 16.2667C11.3878 16.5333 11.4322 16.7556 11.61 16.9333L18.5433 26.6667H13.21C13.0322 26.2222 12.7433 25.8444 12.3433 25.5333C11.9433 25.2222 11.4545 25.0667 10.8767 25.0667C10.2989 25.0667 9.78779 25.2889 9.34334 25.7333C8.8989 26.1778 8.67668 26.7333 8.67668 27.4C8.67668 28.0667 8.8989 28.6222 9.34334 29.0667C9.78779 29.5111 10.2989 29.7333 10.8767 29.7333C11.4545 29.7333 11.9433 29.6 12.3433 29.3333C12.7433 29.0667 13.0322 28.7111 13.21 28.2667H26.81C26.9878 28.7111 27.2767 29.0667 27.6767 29.3333C28.0767 29.6 28.5656 29.7333 29.1433 29.7333C29.7211 29.7333 30.2322 29.5111 30.6767 29.0667C31.1211 28.6222 31.3433 28.0667 31.3433 27.4C31.3433 26.7333 31.1211 26.1778 30.6767 25.7333C30.2322 25.2889 29.7211 25.0667 29.1433 25.0667C28.5656 25.0667 28.0767 25.2222 27.6767 25.5333C27.2767 25.8444 26.9878 26.2222 26.81 26.6667H21.4767L28.41 16.9333C28.5878 16.7556 28.6322 16.5333 28.5433 16.2667L28.1433 14.9333H33.7433V32.1333H6.27668ZM20.01 16.5333C19.8322 16.5333 19.6545 16.4444 19.4767 16.2667C19.2989 16.0889 19.21 15.8889 19.21 15.6667C19.21 15.4444 19.2989 15.2667 19.4767 15.1333C19.6545 15 19.8322 14.9333 20.01 14.9333C20.1878 14.9333 20.3656 15 20.5433 15.1333C20.7211 15.2667 20.81 15.4444 20.81 15.6667C20.81 15.8889 20.7211 16.0889 20.5433 16.2667C20.3656 16.4444 20.1878 16.5333 20.01 16.5333ZM11.7433 27.4667C11.7433 27.6444 11.6767 27.8222 11.5433 28C11.41 28.1778 11.2322 28.2667 11.01 28.2667C10.7878 28.2667 10.61 28.1778 10.4767 28C10.3433 27.8222 10.2767 27.6222 10.2767 27.4C10.2767 27.1778 10.3433 27 10.4767 26.8667C10.61 26.7333 10.7878 26.6667 11.01 26.6667C11.2322 26.6667 11.41 26.7333 11.5433 26.8667C11.6767 27 11.7433 27.2 11.7433 27.4667ZM28.2767 27.4667C28.2767 27.2 28.3433 27 28.4767 26.8667C28.61 26.7333 28.7878 26.6667 29.01 26.6667C29.2322 26.6667 29.41 26.7333 29.5433 26.8667C29.6767 27 29.7433 27.1778 29.7433 27.4C29.7433 27.6222 29.6767 27.8222 29.5433 28C29.41 28.1778 29.2322 28.2667 29.01 28.2667C28.7878 28.2667 28.61 28.1778 28.4767 28C28.3433 27.8222 28.2767 27.6444 28.2767 27.4667ZM16.5433 1.6H23.4767V3.2H16.5433V1.6ZM14.1433 4.8H25.8767V7.06667H14.1433V4.8ZM24.1433 8.66667L26.9433 16.4L20.81 24.9333V17.8667C21.2545 17.7778 21.6322 17.5111 21.9433 17.0667C22.2545 16.6222 22.41 16.1333 22.41 15.6C22.41 15.0667 22.1656 14.5556 21.6767 14.0667C21.1878 13.5778 20.6322 13.3333 20.01 13.3333C19.3878 13.3333 18.8322 13.5778 18.3433 14.0667C17.8545 14.5556 17.61 15.0667 17.61 15.6C17.61 16.1333 17.7656 16.6222 18.0767 17.0667C18.3878 17.5111 18.7656 17.7778 19.21 17.8667V24.9333L13.0767 16.4L15.8767 8.66667H24.1433ZM3.07668 13.3333C3.07668 12.8889 3.23223 12.5111 3.54334 12.2C3.85445 11.8889 4.23223 11.7333 4.67668 11.7333H13.0767L12.5433 13.3333H5.47668C5.2989 13.3333 5.12112 13.4222 4.94334 13.6C4.76557 13.7778 4.67668 13.9556 4.67668 14.1333V32.1333H3.07668V13.3333ZM38.41 36.8C38.41 37.2444 38.2545 37.6222 37.9433 37.9333C37.6322 38.2444 37.2989 38.4 36.9433 38.4H3.07668C2.72112 38.4 2.38779 38.2444 2.07668 37.9333C1.76557 37.6222 1.61001 37.2444 1.61001 36.8V33.7333H14.9433V36C14.9433 36.2667 15.01 36.4667 15.1433 36.6C15.2767 36.7333 15.4767 36.8 15.7433 36.8H24.2767C24.5433 36.8 24.7433 36.7333 24.8767 36.6C25.01 36.4667 25.0767 36.2667 25.0767 36V33.7333H38.41V36.8Z" fill="white"/>
</g>
<defs>
<clipPath id="clip0_1_229">
<rect width="40.02" height="40" fill="white" transform="matrix(1 0 0 -1 0 40)"/>
</clipPath>
</defs>
</svg>
