<svg width="41" height="40" viewBox="0 0 41 40" fill="none" xmlns="http://www.w3.org/2000/svg">
<g clip-path="url(#clip0_1_220)">
<path d="M17.8767 28.5333C17.6989 28.5333 17.5211 28.6222 17.3433 28.8C17.1656 28.9778 17.0767 29.1778 17.0767 29.4C17.0767 29.6222 17.1656 29.8 17.3433 29.9333C17.5211 30.0667 17.6989 30.1333 17.8767 30.1333C18.0545 30.1333 18.2322 30.0667 18.41 29.9333C18.5878 29.8 18.6767 29.6222 18.6767 29.4C18.6767 29.1778 18.5878 28.9778 18.41 28.8C18.2322 28.6222 18.0545 28.5333 17.8767 28.5333ZM31.8767 5.86666H16.01L11.0767 0.933331C10.4545 0.311108 9.72112 -3.8147e-06 8.87668 -3.8147e-06C8.03223 -3.8147e-06 7.32112 0.288887 6.74334 0.866665C6.16557 1.44444 5.87668 2.15555 5.87668 3C5.87668 3.84444 6.14334 4.57777 6.67668 5.2L7.47668 5.86666H3.87668C2.81001 5.86666 1.8989 6.26667 1.14334 7.06667C0.387788 7.86666 0.0100098 8.8 0.0100098 9.86666V14.9333C0.0100098 15.2 0.0766764 15.4 0.21001 15.5333C0.343343 15.6667 0.521121 15.7333 0.743343 15.7333C0.965565 15.7333 1.16557 15.6667 1.34334 15.5333C1.52112 15.4 1.61001 15.2 1.61001 14.9333V9.86666C1.61001 9.15555 1.83223 8.57778 2.27668 8.13333C2.72112 7.68889 3.25445 7.46666 3.87668 7.46666H9.07668L18.9433 17.3333L18.81 18.1333C18.81 19.5556 19.2989 20.7556 20.2767 21.7333C21.1656 22.6222 22.1211 23.2444 23.1433 23.6C24.1656 23.9556 25.4322 24.1333 26.9433 24.1333C27.6545 24.1333 28.41 24.0889 29.21 24C29.5656 24 29.7878 23.8444 29.8767 23.5333C29.9656 23.2222 29.9211 22.9333 29.7433 22.6667C29.2989 22.2222 29.0322 21.7333 28.9433 21.2C28.8545 20.8444 28.8545 20.2222 28.9433 19.3333C29.0322 18.3556 29.0322 17.5556 28.9433 16.9333C28.7656 16.0444 28.3433 15.2667 27.6767 14.6C27.01 13.9333 26.2989 13.4667 25.5433 13.2C24.7878 12.9333 23.9656 12.8889 23.0767 13.0667L17.61 7.46666H31.8767C32.4989 7.46666 33.0545 7.68889 33.5433 8.13333C34.0322 8.57778 34.2767 9.15555 34.2767 9.86666V25.8667H1.61001V22C1.61001 21.8222 1.52112 21.6444 1.34334 21.4667C1.16557 21.2889 0.965565 21.2 0.743343 21.2C0.521121 21.2 0.343343 21.2889 0.21001 21.4667C0.0766764 21.6444 0.0100098 21.8222 0.0100098 22V28.9333C0.0100098 30 0.387788 30.9111 1.14334 31.6667C1.8989 32.4222 2.81001 32.8 3.87668 32.8H14.01V35.3333C12.9433 35.3333 12.0322 35.7111 11.2767 36.4667C10.5211 37.2222 10.1433 38.1333 10.1433 39.2C10.1433 39.4667 10.21 39.6667 10.3433 39.8C10.4767 39.9333 10.6767 40 10.9433 40H24.81C25.0767 40 25.2767 39.9333 25.41 39.8C25.5433 39.6667 25.61 39.4667 25.61 39.2C25.61 38.1333 25.2322 37.2222 24.4767 36.4667C23.7211 35.7111 22.81 35.3333 21.7433 35.3333V32.8H31.8767C32.9433 32.8 33.8545 32.4222 34.61 31.6667C35.3656 30.9111 35.7433 30 35.7433 28.9333V9.86666C35.7433 8.8 35.3656 7.86666 34.61 7.06667C33.8545 6.26667 32.9433 5.86666 31.8767 5.86666ZM7.87668 2C8.14334 1.73333 8.47668 1.6 8.87668 1.6C9.27668 1.6 9.61001 1.73333 9.87668 2L17.7433 9.86666L15.7433 12L7.87668 4.13333C7.52112 3.77777 7.34334 3.4 7.34334 3C7.34334 2.6 7.52112 2.26667 7.87668 2ZM21.4767 20.6667C21.7433 20.2222 22.0989 19.8444 22.5433 19.5333C22.9878 19.2222 23.5211 19.0222 24.1433 18.9333C25.4767 18.8444 26.5878 18.3111 27.4767 17.3333C27.4767 17.6889 27.4322 18.3111 27.3433 19.2C27.3433 19.9111 27.3433 20.4889 27.3433 20.9333C27.3433 21.5556 27.4767 22.1333 27.7433 22.6667C26.3211 22.6667 25.0989 22.5111 24.0767 22.2C23.0545 21.8889 22.1878 21.3778 21.4767 20.6667ZM26.5433 15.6C26.5433 15.6 26.5878 15.6444 26.6767 15.7333C26.41 16.1778 26.0322 16.5556 25.5433 16.8667C25.0545 17.1778 24.5433 17.3778 24.01 17.4667C22.5878 17.4667 21.4322 18.0444 20.5433 19.2C20.4545 18.8444 20.41 18.4889 20.41 18.1333C20.41 17.1556 20.7656 16.3111 21.4767 15.6C22.1878 14.8889 23.0322 14.5333 24.01 14.5333C24.9878 14.5333 25.8322 14.8889 26.5433 15.6ZM20.2767 14.4L19.21 15.4667L16.81 13.0667L18.9433 10.9333L21.3433 13.4667L20.2767 14.4ZM23.8767 38.4H11.8767C12.0545 37.9556 12.3433 37.6 12.7433 37.3333C13.1433 37.0667 13.5656 36.9333 14.01 36.9333H21.7433C22.1878 36.9333 22.6322 37.0667 23.0767 37.3333C23.5211 37.6 23.7878 37.9556 23.8767 38.4ZM20.2767 35.3333H15.4767V32.8H20.2767V35.3333ZM31.8767 31.2H3.87668C3.25445 31.2 2.72112 30.9778 2.27668 30.5333C1.83223 30.0889 1.61001 29.5556 1.61001 28.9333V27.4667H34.2767V28.9333C34.2767 29.5556 34.0322 30.0889 33.5433 30.5333C33.0545 30.9778 32.4989 31.2 31.8767 31.2ZM0.81001 19.3333C0.987788 19.3333 1.16557 19.2444 1.34334 19.0667C1.52112 18.8889 1.61001 18.6889 1.61001 18.4667C1.61001 18.2444 1.52112 18.0667 1.34334 17.9333C1.16557 17.8 0.965565 17.7333 0.743343 17.7333C0.521121 17.7333 0.343343 17.8 0.21001 17.9333C0.0766764 18.0667 0.0100098 18.2444 0.0100098 18.4667C0.0100098 18.6889 0.0766764 18.8889 0.21001 19.0667C0.343343 19.2444 0.543343 19.3333 0.81001 19.3333Z" fill="white"/>
</g>
<defs>
<clipPath id="clip0_1_220">
<rect width="40.02" height="40" fill="white" transform="matrix(1 0 0 -1 0 40)"/>
</clipPath>
</defs>
</svg>
