<svg width="24" height="25" viewBox="0 0 24 25" fill="none" xmlns="http://www.w3.org/2000/svg">
<g clip-path="url(#clip0_1_35)">
<path d="M12 0.5C10.3438 0.5 8.78906 0.8125 7.33594 1.4375C5.88281 2.07812 4.61328 2.94141 3.52734 4.02734C2.44141 5.11328 1.57812 6.38281 0.9375 7.83594C0.3125 9.28906 0 10.8438 0 12.5C0 14.1562 0.3125 15.7109 0.9375 17.1641C1.57812 18.6172 2.44141 19.8867 3.52734 20.9727C4.61328 22.0586 5.88281 22.9219 7.33594 23.5625C8.78906 24.1875 10.3438 24.5 12 24.5C13.6562 24.5 15.2109 24.1875 16.6641 23.5625C18.1172 22.9219 19.3867 22.0586 20.4727 20.9727C21.5586 19.8867 22.4219 18.6172 23.0625 17.1641C23.6875 15.7109 24 14.1562 24 12.5C24 10.8438 23.6875 9.28906 23.0625 7.83594C22.4219 6.38281 21.5586 5.11328 20.4727 4.02734C19.3867 2.94141 18.1172 2.07812 16.6641 1.4375C15.2109 0.8125 13.6562 0.5 12 0.5ZM12 22.6016C10.6094 22.6016 9.29688 22.3359 8.0625 21.8047C6.84375 21.2734 5.77734 20.5508 4.86328 19.6367C3.94922 18.7227 3.22656 17.6562 2.69531 16.4375C2.16406 15.2031 1.89844 13.8906 1.89844 12.5C1.89844 11.1094 2.16406 9.79688 2.69531 8.5625C3.22656 7.34375 3.94922 6.27734 4.86328 5.36328C5.77734 4.44922 6.84375 3.72656 8.0625 3.19531C9.29688 2.66406 10.6094 2.39844 12 2.39844C13.3906 2.39844 14.7031 2.66406 15.9375 3.19531C17.1562 3.72656 18.2227 4.44922 19.1367 5.36328C20.0508 6.27734 20.7734 7.34375 21.3047 8.5625C21.8359 9.79688 22.1016 11.1094 22.1016 12.5C22.1016 13.8906 21.8359 15.2031 21.3047 16.4375C20.7734 17.6562 20.0508 18.7227 19.1367 19.6367C18.2227 20.5508 17.1562 21.2734 15.9375 21.8047C14.7031 22.3359 13.3906 22.6016 12 22.6016ZM12 14.6328C11.1562 14.6328 10.3281 14.7344 9.51562 14.9375C8.70312 15.1562 7.92188 15.4648 7.17188 15.8633C6.42188 16.2617 5.70312 16.7578 5.01562 17.3516C4.32812 17.9453 3.69531 18.625 3.11719 19.3906L4.61719 20.5391C5.11719 19.8984 5.64844 19.3281 6.21094 18.8281C6.78906 18.3281 7.39062 17.9062 8.01562 17.5625C8.64062 17.2188 9.28906 16.9609 9.96094 16.7891C10.6328 16.6172 11.3125 16.5312 12 16.5312C12.6875 16.5312 13.3672 16.6172 14.0391 16.7891C14.7109 16.9609 15.3594 17.2188 15.9844 17.5625C16.6094 17.9062 17.2109 18.3281 17.7891 18.8281C18.3516 19.3281 18.8828 19.8984 19.3828 20.5391L20.8828 19.3906C20.3047 18.625 19.6719 17.9453 18.9844 17.3516C18.2969 16.7578 17.5781 16.2617 16.8281 15.8633C16.0781 15.4648 15.2969 15.1562 14.4844 14.9375C13.6719 14.7344 12.8438 14.6328 12 14.6328ZM12 4.8125C11.3125 4.8125 10.6719 4.9375 10.0781 5.1875C9.48438 5.45312 8.96094 5.8125 8.50781 6.26562C8.05469 6.71875 7.70312 7.24219 7.45312 7.83594C7.1875 8.44531 7.05469 9.09375 7.05469 9.78125C7.05469 10.4688 7.1875 11.1094 7.45312 11.7031C7.70312 12.3125 8.05469 12.8438 8.50781 13.2969C8.96094 13.75 9.48438 14.1016 10.0781 14.3516C10.6719 14.6172 11.3125 14.75 12 14.75C12.6875 14.75 13.3281 14.6172 13.9219 14.3516C14.5156 14.1016 15.0391 13.75 15.4922 13.2969C15.9453 12.8438 16.2969 12.3125 16.5469 11.7031C16.8125 11.1094 16.9453 10.4688 16.9453 9.78125C16.9453 9.09375 16.8125 8.44531 16.5469 7.83594C16.2969 7.24219 15.9453 6.71875 15.4922 6.26562C15.0391 5.8125 14.5156 5.45312 13.9219 5.1875C13.3281 4.9375 12.6875 4.8125 12 4.8125ZM12 12.8516C11.1562 12.8516 10.4375 12.5508 9.84375 11.9492C9.25 11.3477 8.95312 10.625 8.95312 9.78125C8.95312 8.9375 9.25 8.21484 9.84375 7.61328C10.4375 7.01172 11.1562 6.71094 12 6.71094C12.8438 6.71094 13.5625 7.01172 14.1562 7.61328C14.75 8.21484 15.0469 8.9375 15.0469 9.78125C15.0469 10.625 14.75 11.3477 14.1562 11.9492C13.5625 12.5508 12.8438 12.8516 12 12.8516Z" fill="#1B2336"/>
</g>
<defs>
<clipPath id="clip0_1_35">
<rect width="24" height="25" fill="white" transform="matrix(1 0 0 -1 0 25)"/>
</clipPath>
</defs>
</svg>
